<svg width="40" height="40" viewBox="0 0 40 40" fill="none" xmlns="http://www.w3.org/2000/svg">
<rect width="40" height="40" rx="20" fill="white" fill-opacity="0.42"/>
<path d="M23.7585 11.7501C23.6356 12.355 23.6356 12.9785 23.7585 13.5834H13.1352L20.0561 19.6902L24.6843 15.5469C25.0748 16.03 25.5625 16.4324 26.1171 16.7248L20.0662 22.1432L12.6668 15.6147V26.4167H27.3335V17.1584C27.9384 17.2813 28.5619 17.2813 29.1668 17.1584V27.3334C29.1668 27.5765 29.0703 27.8097 28.8983 27.9816C28.7264 28.1535 28.4933 28.2501 28.2502 28.2501H11.7502C11.507 28.2501 11.2739 28.1535 11.102 27.9816C10.9301 27.8097 10.8335 27.5765 10.8335 27.3334V12.6667C10.8335 12.4236 10.9301 12.1905 11.102 12.0186C11.2739 11.8467 11.507 11.7501 11.7502 11.7501H23.7585ZM28.2502 15.4167C27.889 15.4167 27.5314 15.3456 27.1978 15.2074C26.8641 15.0692 26.561 14.8667 26.3056 14.6113C26.0503 14.3559 25.8477 14.0528 25.7095 13.7191C25.5713 13.3855 25.5002 13.0279 25.5002 12.6667C25.5002 12.3056 25.5713 11.948 25.7095 11.6144C25.8477 11.2807 26.0503 10.9776 26.3056 10.7222C26.561 10.4668 26.8641 10.2643 27.1978 10.1261C27.5314 9.98788 27.889 9.91675 28.2502 9.91675C28.9795 9.91675 29.679 10.2065 30.1947 10.7222C30.7104 11.2379 31.0002 11.9374 31.0002 12.6667C31.0002 13.3961 30.7104 14.0956 30.1947 14.6113C29.679 15.127 28.9795 15.4167 28.2502 15.4167Z" fill="white"/>
</svg>
