<svg width="38" height="40" viewBox="0 0 38 40" fill="none" xmlns="http://www.w3.org/2000/svg">
<path fill-rule="evenodd" clip-rule="evenodd" d="M0 20C0 31.0457 8.50659 40 19 40C29.4934 40 38 31.0457 38 20C38 8.9543 29.4934 0 19 0C8.50659 0 0 8.9543 0 20ZM15.5167 29.1667L15.8399 24.0685L15.8397 24.0683L24.6501 15.6992C25.0367 15.3379 24.5656 15.1618 24.0523 15.4894L13.1791 22.7103L8.48246 21.1672C7.46819 20.8403 7.4609 20.1067 8.71017 19.5792L27.0119 12.1507C27.8478 11.7513 28.6546 12.3621 28.3355 13.7088L25.2187 29.1693C25.0011 30.2679 24.3704 30.5307 23.4967 30.0232L18.7488 26.3308L16.4667 28.6667C16.4595 28.674 16.4523 28.6814 16.4452 28.6887C16.1899 28.9502 15.9788 29.1667 15.5167 29.1667Z" fill="#FAFAFA" fill-opacity="0.8"/>
</svg>
