<svg width="121" height="24" viewBox="0 0 121 24" fill="none" xmlns="http://www.w3.org/2000/svg">
<path d="M0.96 0.599998H5.152V7.96C6.272 7.16 7.616 6.744 9.184 6.744C10.656 6.744 12.032 7.128 13.312 7.864C14.56 8.6 15.552 9.592 16.32 10.872C17.056 12.152 17.44 13.528 17.44 15C17.44 16.504 17.056 17.88 16.32 19.16C15.552 20.44 14.56 21.432 13.312 22.168C12.032 22.904 10.656 23.256 9.184 23.256C7.68 23.256 6.304 22.904 5.056 22.168C3.776 21.432 2.784 20.44 2.048 19.16C1.312 17.88 0.96 16.504 0.96 15V0.599998ZM6.272 12.024C5.472 12.824 5.088 13.816 5.088 15C5.088 16.216 5.472 17.208 6.272 18.008C7.04 18.808 8.032 19.192 9.216 19.192C10.368 19.192 11.36 18.808 12.128 18.008C12.896 17.208 13.28 16.216 13.28 15C13.28 13.816 12.896 12.824 12.128 12.024C11.36 11.224 10.368 10.808 9.216 10.808C8.032 10.808 7.04 11.224 6.272 12.024ZM23.114 4.6C22.634 4.12 22.41 3.512 22.41 2.808C22.41 2.136 22.634 1.56 23.114 1.08C23.594 0.599998 24.202 0.344 24.906 0.344C25.578 0.344 26.154 0.599998 26.634 1.08C27.114 1.56 27.37 2.136 27.37 2.808C27.37 3.512 27.114 4.12 26.634 4.6C26.154 5.08 25.578 5.304 24.906 5.304C24.202 5.304 23.594 5.08 23.114 4.6ZM22.826 7H26.986V23H22.826V7ZM37.94 11.064V15.448C37.94 16.728 38.164 17.656 38.612 18.2C39.06 18.776 39.796 19.032 40.82 19.032V23.096C38.644 23.096 36.948 22.488 35.668 21.208C34.388 19.96 33.78 18.04 33.78 15.448V11.064H31.412V7H33.78V0.631998H37.94V7H40.82V11.064H37.94ZM57.534 7.864C58.814 8.6 59.806 9.592 60.542 10.872C61.278 12.152 61.662 13.528 61.662 15C61.662 16.504 61.278 17.88 60.542 19.16C59.806 20.44 58.814 21.432 57.534 22.168C56.254 22.904 54.878 23.256 53.406 23.256C51.902 23.256 50.526 22.904 49.246 22.168C47.966 21.432 46.974 20.44 46.238 19.16C45.502 17.88 45.15 16.504 45.15 15C45.15 13.528 45.502 12.152 46.238 10.872C46.974 9.592 47.966 8.6 49.246 7.864C50.526 7.128 51.902 6.744 53.406 6.744C54.878 6.744 56.254 7.128 57.534 7.864ZM50.494 12.024C49.694 12.824 49.31 13.816 49.31 15C49.31 16.216 49.694 17.208 50.494 18.008C51.262 18.808 52.254 19.192 53.438 19.192C54.59 19.192 55.582 18.808 56.35 18.008C57.118 17.208 57.502 16.216 57.502 15C57.502 13.816 57.118 12.824 56.35 12.024C55.582 11.224 54.59 10.808 53.438 10.808C52.254 10.808 51.262 11.224 50.494 12.024ZM80.715 14.584V23H76.555V14.584C76.555 13.304 76.299 12.344 75.851 11.736C75.403 11.128 74.667 10.808 73.675 10.808C72.651 10.808 71.915 11.128 71.467 11.736C71.019 12.344 70.795 13.304 70.795 14.584V23H66.635V14.584C66.635 11.992 67.275 10.04 68.555 8.728C69.835 7.416 71.531 6.744 73.675 6.744C75.787 6.744 77.515 7.416 78.795 8.728C80.075 10.04 80.715 11.992 80.715 14.584ZM86.731 10.936C87.435 9.656 88.427 8.664 89.675 7.896C90.923 7.128 92.299 6.744 93.803 6.744C95.147 6.744 96.459 7.064 97.739 7.704C98.987 8.344 100.011 9.24 100.843 10.424C101.675 11.64 102.091 13.048 102.155 14.648C102.155 15.352 102.123 15.992 102.027 16.632H90.155C90.347 17.432 90.763 18.072 91.403 18.52C92.043 18.968 92.843 19.192 93.803 19.192C94.443 19.192 94.987 19.128 95.403 18.936C95.819 18.776 96.203 18.552 96.555 18.264L101.515 18.296C100.843 19.768 99.819 20.984 98.475 21.88C97.099 22.808 95.595 23.256 93.931 23.256C92.395 23.256 91.019 22.904 89.771 22.168C88.491 21.432 87.499 20.44 86.763 19.16C86.027 17.912 85.675 16.536 85.675 15.032C85.675 13.56 86.027 12.216 86.731 10.936ZM97.707 13.304C97.387 12.568 96.875 11.96 96.171 11.512C95.467 11.064 94.731 10.808 93.931 10.808C93.035 10.808 92.267 11.032 91.627 11.48C90.987 11.928 90.475 12.536 90.155 13.304H97.707ZM116.247 23L112.951 18.136L109.623 23H104.887L110.583 14.68L105.367 7H110.039L112.919 11.256L115.831 7H120.503L115.287 14.68L120.951 23H116.247Z" fill="#1CD972"/>
</svg>
