<svg width="37" height="37" viewBox="0 0 37 37" fill="none" xmlns="http://www.w3.org/2000/svg">
<circle cx="18.5084" cy="18.0121" r="18.0084" fill="#E8F2EE"/>
<path d="M12.9284 25.0122L22.4884 11.0122H23.6684L14.1084 25.0122H12.9284ZM14.0084 18.5122C13.3818 18.5122 12.8284 18.3589 12.3484 18.0522C11.8684 17.7322 11.4951 17.2855 11.2284 16.7122C10.9751 16.1389 10.8484 15.4722 10.8484 14.7122C10.8484 13.9522 10.9751 13.2855 11.2284 12.7122C11.4951 12.1389 11.8684 11.6989 12.3484 11.3922C12.8284 11.0722 13.3818 10.9122 14.0084 10.9122C14.6351 10.9122 15.1818 11.0722 15.6484 11.3922C16.1284 11.6989 16.5018 12.1389 16.7684 12.7122C17.0351 13.2855 17.1684 13.9522 17.1684 14.7122C17.1684 15.4722 17.0351 16.1389 16.7684 16.7122C16.5018 17.2855 16.1284 17.7322 15.6484 18.0522C15.1818 18.3589 14.6351 18.5122 14.0084 18.5122ZM14.0084 17.6122C14.6618 17.6122 15.1818 17.3589 15.5684 16.8522C15.9684 16.3322 16.1684 15.6189 16.1684 14.7122C16.1684 13.8055 15.9684 13.0989 15.5684 12.5922C15.1818 12.0722 14.6618 11.8122 14.0084 11.8122C13.3418 11.8122 12.8151 12.0722 12.4284 12.5922C12.0418 13.0989 11.8484 13.8055 11.8484 14.7122C11.8484 15.6189 12.0418 16.3322 12.4284 16.8522C12.8151 17.3589 13.3418 17.6122 14.0084 17.6122ZM22.5884 25.1122C21.9751 25.1122 21.4284 24.9589 20.9484 24.6522C20.4684 24.3322 20.0951 23.8855 19.8284 23.3122C19.5618 22.7389 19.4284 22.0722 19.4284 21.3122C19.4284 20.5522 19.5618 19.8855 19.8284 19.3122C20.0951 18.7389 20.4684 18.2989 20.9484 17.9922C21.4284 17.6722 21.9751 17.5122 22.5884 17.5122C23.2284 17.5122 23.7818 17.6722 24.2484 17.9922C24.7284 18.2989 25.0951 18.7389 25.3484 19.3122C25.6151 19.8855 25.7484 20.5522 25.7484 21.3122C25.7484 22.0722 25.6151 22.7389 25.3484 23.3122C25.0951 23.8855 24.7284 24.3322 24.2484 24.6522C23.7818 24.9589 23.2284 25.1122 22.5884 25.1122ZM22.5884 24.2122C23.2418 24.2122 23.7618 23.9589 24.1484 23.4522C24.5484 22.9322 24.7484 22.2189 24.7484 21.3122C24.7484 20.4055 24.5484 19.6989 24.1484 19.1922C23.7618 18.6722 23.2418 18.4122 22.5884 18.4122C21.9351 18.4122 21.4084 18.6722 21.0084 19.1922C20.6218 19.6989 20.4284 20.4055 20.4284 21.3122C20.4284 22.2189 20.6218 22.9322 21.0084 23.4522C21.4084 23.9589 21.9351 24.2122 22.5884 24.2122Z" fill="#1CD972"/>
</svg>
