<svg width="50" height="51" viewBox="0 0 50 51" fill="none" xmlns="http://www.w3.org/2000/svg">
<rect y="0.900146" width="50" height="50" rx="25" fill="#E8F2EE"/>
<path d="M14.4999 15.4001H35.4999C35.8093 15.4001 36.1061 15.5231 36.3249 15.7419C36.5437 15.9606 36.6666 16.2574 36.6666 16.5668V35.2335C36.6666 35.5429 36.5437 35.8396 36.3249 36.0584C36.1061 36.2772 35.8093 36.4001 35.4999 36.4001H14.4999C14.1905 36.4001 13.8938 36.2772 13.675 36.0584C13.4562 35.8396 13.3333 35.5429 13.3333 35.2335V16.5668C13.3333 16.2574 13.4562 15.9606 13.675 15.7419C13.8938 15.5231 14.1905 15.4001 14.4999 15.4001ZM34.3333 25.9001H15.6666V34.0668H34.3333V25.9001ZM34.3333 21.2335V17.7335H15.6666V21.2335H34.3333Z" fill="#1CD972"/>
</svg>
