<svg width="50" height="51" viewBox="0 0 50 51" fill="none" xmlns="http://www.w3.org/2000/svg">
<rect y="0.900146" width="50" height="50" rx="25" fill="#E8F2EE"/>
<path d="M13.3333 35.2335H36.6666V37.5669H13.3333V35.2335ZM15.6666 25.9002H17.9999V34.0669H15.6666V25.9002ZM21.4999 25.9002H23.8333V34.0669H21.4999V25.9002ZM26.1666 25.9002H28.4999V34.0669H26.1666V25.9002ZM31.9999 25.9002H34.3333V34.0669H31.9999V25.9002ZM13.3333 20.0669L24.9999 14.2335L36.6666 20.0669V24.7335H13.3333V20.0669ZM15.6666 21.5089V22.4002H34.3333V21.5089L24.9999 16.8422L15.6666 21.5089ZM24.9999 21.2335C24.6905 21.2335 24.3938 21.1106 24.175 20.8918C23.9562 20.673 23.8333 20.3763 23.8333 20.0669C23.8333 19.7574 23.9562 19.4607 24.175 19.2419C24.3938 19.0231 24.6905 18.9002 24.9999 18.9002C25.3093 18.9002 25.6061 19.0231 25.8249 19.2419C26.0437 19.4607 26.1666 19.7574 26.1666 20.0669C26.1666 20.3763 26.0437 20.673 25.8249 20.8918C25.6061 21.1106 25.3093 21.2335 24.9999 21.2335Z" fill="#1CD972"/>
</svg>
