<svg width="50" height="51" viewBox="0 0 50 51" fill="none" xmlns="http://www.w3.org/2000/svg">
<rect y="0.900146" width="50" height="50" rx="25" fill="#E8F2EE"/>
<path d="M24.9999 37.5669C18.5564 37.5669 13.3333 32.3437 13.3333 25.9002C13.3333 19.4567 18.5564 14.2335 24.9999 14.2335C31.4434 14.2335 36.6666 19.4567 36.6666 25.9002C36.6666 32.3437 31.4434 37.5669 24.9999 37.5669ZM22.3283 34.845C21.1772 32.4036 20.5104 29.7621 20.3648 27.0669H15.7389C15.9659 28.8622 16.7095 30.553 17.8792 31.9338C19.049 33.3146 20.5946 34.326 22.3283 34.845ZM22.7016 27.0669C22.8778 29.9124 23.6909 32.5852 24.9999 34.9442C26.3443 32.5228 27.1296 29.8312 27.2983 27.0669H22.7016ZM34.2609 27.0669H29.6351C29.4894 29.7621 28.8226 32.4036 27.6716 34.845C29.4052 34.326 30.9508 33.3146 32.1206 31.9338C33.2903 30.553 34.0339 28.8622 34.2609 27.0669ZM15.7389 24.7335H20.3648C20.5104 22.0383 21.1772 19.3968 22.3283 16.9554C20.5946 17.4744 19.049 18.4857 17.8792 19.8665C16.7095 21.2473 15.9659 22.9381 15.7389 24.7335ZM22.7028 24.7335H27.2971C27.1288 21.9692 26.3439 19.2776 24.9999 16.8562C23.6555 19.2775 22.8702 21.9691 22.7016 24.7335H22.7028ZM27.6716 16.9554C28.8226 19.3968 29.4894 22.0383 29.6351 24.7335H34.2609C34.0339 22.9381 33.2903 21.2473 32.1206 19.8665C30.9508 18.4857 29.4052 17.4744 27.6716 16.9554Z" fill="#1CD972"/>
</svg>
