<svg width="50" height="51" viewBox="0 0 50 51" fill="none" xmlns="http://www.w3.org/2000/svg">
<rect y="0.900146" width="50" height="50" rx="25" fill="#E8F2EE"/>
<path d="M22.6666 35.2335H17.9999V37.5669H15.6666V35.2335H14.4999C14.1905 35.2335 13.8938 35.1106 13.675 34.8918C13.4562 34.673 13.3333 34.3763 13.3333 34.0669V16.5669C13.3333 16.2574 13.4562 15.9607 13.675 15.7419C13.8938 15.5231 14.1905 15.4002 14.4999 15.4002H22.6666V13.7552C22.6666 13.6705 22.6851 13.5869 22.7207 13.51C22.7563 13.4332 22.8083 13.3651 22.8729 13.3103C22.9375 13.2556 23.0132 13.2156 23.0949 13.1931C23.1765 13.1706 23.2621 13.1661 23.3456 13.18L35.6912 15.238C35.9637 15.2833 36.2112 15.4238 36.3898 15.6344C36.5684 15.845 36.6665 16.1122 36.6666 16.3884V18.9002H37.8333V21.2335H36.6666V29.4002H37.8333V31.7335H36.6666V34.2454C36.6665 34.5215 36.5684 34.7887 36.3898 34.9993C36.2112 35.2099 35.9637 35.3504 35.6912 35.3957L34.3333 35.622V37.5669H31.9999V36.0117L23.3456 37.4537C23.2621 37.4676 23.1765 37.4631 23.0949 37.4406C23.0132 37.4181 22.9375 37.3781 22.8729 37.3234C22.8083 37.2686 22.7563 37.2005 22.7207 37.1237C22.6851 37.0468 22.6666 36.9632 22.6666 36.8785V35.2335ZM24.9999 34.8135L34.3333 33.2572V17.3765L24.9999 15.8214V34.8124V34.8135ZM30.2499 28.2335C29.2839 28.2335 28.4999 26.9269 28.4999 25.3169C28.4999 23.7069 29.2839 22.4002 30.2499 22.4002C31.2159 22.4002 31.9999 23.7069 31.9999 25.3169C31.9999 26.9269 31.2159 28.2335 30.2499 28.2335Z" fill="#1CD972"/>
</svg>
