<svg width="50" height="51" viewBox="0 0 50 51" fill="none" xmlns="http://www.w3.org/2000/svg">
<rect y="0.900146" width="50" height="50" rx="25" fill="#E8F2EE"/>
<path d="M24.9999 37.5669C18.5564 37.5669 13.3333 32.3437 13.3333 25.9002C13.3333 19.4567 18.5564 14.2335 24.9999 14.2335C31.4434 14.2335 36.6666 19.4567 36.6666 25.9002C36.6666 32.3437 31.4434 37.5669 24.9999 37.5669ZM24.9999 35.2335C27.4753 35.2335 29.8492 34.2502 31.5996 32.4999C33.3499 30.7495 34.3333 28.3755 34.3333 25.9002C34.3333 23.4248 33.3499 21.0509 31.5996 19.3005C29.8492 17.5502 27.4753 16.5669 24.9999 16.5669C22.5246 16.5669 20.1506 17.5502 18.4003 19.3005C16.6499 21.0509 15.6666 23.4248 15.6666 25.9002C15.6666 28.3755 16.6499 30.7495 18.4003 32.4999C20.1506 34.2502 22.5246 35.2335 24.9999 35.2335ZM22.7249 24.7335H28.4999V27.0669H22.7249C22.826 27.5631 23.0545 28.0244 23.388 28.4055C23.7215 28.7866 24.1485 29.0743 24.6269 29.2403C25.1053 29.4063 25.6187 29.4448 26.1166 29.3522C26.6144 29.2595 27.0796 29.0388 27.4663 28.7119L29.4496 30.0337C28.7681 30.7756 27.8875 31.3058 26.9129 31.5609C25.9383 31.8161 24.9109 31.7854 23.9533 31.4726C22.9956 31.1599 22.1482 30.5782 21.5121 29.7969C20.876 29.0157 20.4781 28.068 20.3659 27.0669H19.1666V24.7335H20.3648C20.4766 23.7319 20.8744 22.7836 21.5106 22.0019C22.1468 21.2202 22.9946 20.6382 23.9527 20.3254C24.9108 20.0125 25.9387 19.9821 26.9137 20.2376C27.8886 20.4932 28.7694 21.024 29.4508 21.7667L27.4663 23.0885C27.0796 22.7615 26.6144 22.5408 26.1166 22.4482C25.6187 22.3555 25.1053 22.3941 24.6269 22.5601C24.1485 22.7261 23.7215 23.0138 23.388 23.3949C23.0545 23.776 22.826 24.2373 22.7249 24.7335Z" fill="#1CD972"/>
</svg>
